P2
4 5
255
   0   0   0   0
 192 192 192 192
 192 255 128 128
 192 255  64  64
 192   0   0   0