P3
3 2
255
255   0   0     0 255 0     0   0 255
  0 128 255   255 128 0   128 255   0 
