<?xml version="1.0" encoding="UTF-8" standalone="no"?>
<!-- Created with Inkscape (http://www.inkscape.org/) -->

<svg
   xmlns:dc="http://purl.org/dc/elements/1.1/"
   xmlns:cc="http://creativecommons.org/ns#"
   xmlns:rdf="http://www.w3.org/1999/02/22-rdf-syntax-ns#"
   xmlns:svg="http://www.w3.org/2000/svg"
   xmlns="http://www.w3.org/2000/svg"
   xmlns:sodipodi="http://sodipodi.sourceforge.net/DTD/sodipodi-0.dtd"
   xmlns:inkscape="http://www.inkscape.org/namespaces/inkscape"
   id="svg3336"
   version="1.1"
   inkscape:version="0.91 r13725"
   xml:space="preserve"
   width="744.09998"
   height="1052.3625"
   viewBox="0 0 744.09998 1052.3625"
   sodipodi:docname="python-logo.svg"><metadata
     id="metadata3342"><rdf:RDF><cc:Work
         rdf:about=""><dc:format>image/svg+xml</dc:format><dc:type
           rdf:resource="http://purl.org/dc/dcmitype/StillImage" /><dc:title></dc:title></cc:Work></rdf:RDF></metadata><defs
     id="defs3340" /><sodipodi:namedview
     pagecolor="#ffffff"
     bordercolor="#666666"
     borderopacity="1"
     objecttolerance="10"
     gridtolerance="10"
     guidetolerance="10"
     inkscape:pageopacity="0"
     inkscape:pageshadow="2"
     inkscape:window-width="1855"
     inkscape:window-height="1056"
     id="namedview3338"
     showgrid="false"
     inkscape:zoom="0.87327319"
     inkscape:cx="372.04999"
     inkscape:cy="526.18127"
     inkscape:window-x="65"
     inkscape:window-y="24"
     inkscape:window-maximized="1"
     inkscape:current-layer="g3344" /><g
     id="g3344"
     inkscape:groupmode="layer"
     inkscape:label="python-logo"
     transform="matrix(1.25,0,0,-1.25,0,1052.3625)"><g
       id="g3346"
       transform="translate(72,769.89)"><g
         id="g3348"
         transform="translate(425.99,-256.26)"><g
           id="g3350"><g
             id="g3352"><g
               id="g3354"><g
                 id="g3356"><path
                   d="m -52.16469,-97.64345 0,42.21839 c 0,32.73381 -27.74441,60.27894 -59.39425,60.27894 l -94.96546,0 c -26.01488,0 -47.53453,22.26088 -47.53453,48.30765 l 0,90.53401 c 0,25.75984 22.40434,40.91924 47.53453,48.30766 30.09564,8.84697 58.94792,10.45696 94.96546,0 23.93464,-6.92614 47.53454,-20.87408 47.53454,-48.30766 l 0,-36.23273 -94.95749,0 0,-12.07491 94.95749,0 47.53453,0 c 27.63283,0 37.93037,-19.27206 47.53453,-48.20405 9.92296,-29.78482 9.5085,-58.42187 0,-96.62325 -6.8305,-27.50532 -19.86981,-48.19607 -47.53453,-48.20403 l -35.67482,0 0,-2e-5 z m -53.4086,229.25611 c 9.85919,0 17.83742,8.07386 17.83742,18.06059 0,10.0186 -7.98619,18.17215 -17.83742,18.17215 -9.81933,0 -17.83741,-8.15355 -17.83741,-18.17215 0,-9.98673 8.01808,-18.06059 17.83741,-18.06059 z"
                   style="fill:#d01a55;fill-opacity:1;fill-rule:nonzero;stroke:none"
                   id="path3358"
                   inkscape:connector-curvature="0" /></g><g
                 id="g3360"><path
                   d="m -161.08604,-199.25612 c -16.25132,0.0797 -31.77736,1.45856 -45.43039,3.8815 -40.2338,7.10947 -47.53453,21.98194 -47.5425,49.42349 l 0,36.23275 95.07704,0 0,12.07492 -95.07704,0 -35.67482,0 c -27.63286,0 -51.82254,16.60998 -59.39427,48.20404 -8.72742,36.21679 -9.11797,58.81239 0,96.62324 6.75876,28.14293 22.8985,48.19608 50.53134,48.20404 l 32.68598,0 0,-43.4458 c 0,-31.37886 27.14665,-59.05949 59.38629,-59.05949 l 94.96545,0 c 26.4373,0 47.53455,-21.76674 47.53455,-48.30765 l 0,-90.52605 c 0,-25.75984 -21.73487,-45.11957 -47.53455,-49.42349 -16.33104,-2.71785 -33.27577,-3.95326 -49.5271,-3.8815 l 2e-5,0 z m -51.41605,29.14719 c 9.81934,0 17.8374,8.15355 17.8374,18.17216 0,9.98671 -8.01806,18.06057 -17.8374,18.06057 -9.85921,0 -17.83742,-8.07386 -17.84538,-18.06057 0,-10.01861 7.98617,-18.17216 17.84538,-18.17216 z"
                   style="fill:#c1d208;fill-opacity:1;fill-rule:nonzero;stroke:none"
                   id="path3362"
                   inkscape:connector-curvature="0" /></g><g
                 id="g3364"><g
                   id="g3366" /><g
                   id="g3368"><g
                     id="g3370"
                     transform="scale(-1,-1)"><g
                       id="g3372" /><g
                       id="g3374"
                       transform="matrix(-1,0,0,-1,425.99,-256.26)"><g
                         id="g3376" /><g
                         id="g3378"
                         transform="matrix(5.6,0,0,5.6,-2169.26,1206.57)"><text
                           transform="matrix(1,0,0,-1,425.99,-256.26)"
                           style="font-variant:normal;font-weight:normal;font-size:9.9630003px;font-family:AlteDIN1451Mittelschrift;-inkscape-font-specification:AlteDIN1451Mittelschrift;writing-mode:lr-tb;fill:#ffffff;fill-opacity:1;fill-rule:nonzero;stroke:none"
                           id="text3380"><tspan
                             x="0 5.9080591 10.889559 15.871059 22.327084 28.404512"
                             y="0"
                             sodipodi:role="line"
                             id="tspan3382">PYTHON</tspan></text>
</g><g
                         id="g3384"
                         transform="translate(425.99,-256.26)" /></g></g></g></g><g
                 id="g3386"><g
                   id="g3388"><g
                     id="g3390"
                     transform="scale(-1,-1)"><g
                       id="g3392" /><g
                       id="g3394"
                       transform="matrix(-1,0,0,-1,425.99,-256.26)"><g
                         id="g3396" /><g
                         id="g3398"
                         transform="matrix(5.6,0,0,5.6,-2276.82,1106.29)"><text
                           transform="matrix(1,0,0,-1,425.99,-256.26)"
                           style="font-variant:normal;font-weight:normal;font-size:9.9630003px;font-family:AlteDIN1451Mittelschrift;-inkscape-font-specification:AlteDIN1451Mittelschrift;writing-mode:lr-tb;fill:#666666;fill-opacity:1;fill-rule:nonzero;stroke:none"
                           id="text3400"><tspan
                             x="0 6.2069492"
                             y="0"
                             sodipodi:role="line"
                             id="tspan3402">AU</tspan></text>
<text
                           transform="matrix(1,0,0,-1,438.47,-256.26)"
                           style="font-variant:normal;font-weight:normal;font-size:9.9630003px;font-family:AlteDIN1451Mittelschrift;-inkscape-font-specification:AlteDIN1451Mittelschrift;writing-mode:lr-tb;fill:#ffffff;fill-opacity:1;fill-rule:nonzero;stroke:none"
                           id="text3404"><tspan
                             x="0 5.5394282 10.520928 16.060356 21.599785"
                             y="0"
                             sodipodi:role="line"
                             id="tspan3406">LYCÉE</tspan></text>
</g><g
                         id="g3408"
                         transform="translate(425.99,-256.26)" /></g></g></g></g></g></g></g></g></g></g></svg>